<?xml version="1.0" encoding="utf-8"?>
<!-- Generator: Adobe Illustrator 17.0.0, SVG Export Plug-In . SVG Version: 6.00 Build 0)  -->
<!DOCTYPE svg PUBLIC "-//W3C//DTD SVG 1.1//EN" "http://www.w3.org/Graphics/SVG/1.1/DTD/svg11.dtd">
<svg version="1.1" id="Layer_1" xmlns="http://www.w3.org/2000/svg" xmlns:xlink="http://www.w3.org/1999/xlink" x="0px" y="0px"
	 width="237.013px" height="325.325px" viewBox="0 0 237.013 325.325" enable-background="new 0 0 237.013 325.325"
	 xml:space="preserve">
<g>
	<path d="M34.348,71.912c0,1.588-0.296,2.382-0.884,2.382h-2.476c-0.531,0-0.915-0.376-1.149-1.125
		c-0.236-0.75-0.619-1.76-1.15-3.031c-1.003,2.771-4.304,4.156-9.905,4.156c-6.072,0-10.347-1.525-12.822-4.576
		c-2.182-2.697-3.243-7.156-3.184-13.376l0.177-35.905C3.012,13.164,4.221,8.235,6.579,5.654c2.123-2.288,5.925-3.432,11.408-3.432
		c6.544,0,10.995,1.646,13.354,4.937c1.769,2.352,2.682,6.32,2.741,11.904c0.177,5.231,0.235,9.083,0.177,11.55
		c0,1-0.384,1.499-1.15,1.499c-2.064,0.06-5.277,0.03-9.639-0.088c-0.708,0-1.092-0.439-1.15-1.32
		c-0.119-3.461-0.236-6.894-0.354-10.298c-0.413-4.694-1.503-7.042-3.271-7.042c-2.182,0-3.272,2.325-3.272,6.974v37.164
		c0,0.942,0.294,2.062,0.885,3.355c0.707,1.589,1.532,2.383,2.476,2.383c2.357,0,3.538-3.184,3.538-9.551v-4.51
		c0-0.766-0.236-1.12-0.708-1.062h-2.122c-0.531,0-0.796-0.265-0.796-0.796v-8.578c0-0.884,0.442-1.326,1.326-1.326
		c3.124,0,7.458,0.03,13,0.088c0.884,0,1.326,0.5,1.326,1.499V71.912z"/>
	<path d="M66.714,60.411c0,9.904-4.718,14.856-14.149,14.856c-4.895,0-8.401-1.238-10.523-3.714
		c-2.005-2.299-3.007-6.014-3.007-11.143V19.466c0-6.425,1.296-10.995,3.891-13.707c2.123-2.24,5.335-3.36,9.639-3.36
		c4.599,0,7.959,0.973,10.081,2.918c2.711,2.476,4.068,6.839,4.068,13.088V60.411z M55.482,56.431V20.616
		c0-3.478-0.826-5.218-2.476-5.218c-1.828,0-2.742,1.769-2.742,5.306v35.815c0,1.945,0.206,3.169,0.619,3.67
		c0.412,0.501,1.119,0.751,2.123,0.751C54.656,60.941,55.482,59.437,55.482,56.431z"/>
	<path d="M141.173,3.902c-1.238,9.787-2.978,20.9-5.217,33.339c-3.892,22.167-5.956,33.9-6.19,35.196
		c-0.177,1.003-0.619,1.532-1.327,1.592c-2.418,0.294-5.277,0.294-8.578,0c-0.768-0.06-1.209-0.502-1.327-1.327
		c-0.943-9.551-2.093-20.192-3.448-31.924c-0.177-1.179-0.385-1.769-0.619-1.769c-0.236,0-0.473,0.561-0.708,1.68
		c-0.413,2.299-1.032,7.782-1.856,16.448c-0.885,9.257-1.401,14.342-1.548,15.255c-0.148,0.915-0.634,1.429-1.459,1.548
		c-2.949,0.354-5.956,0.382-9.021,0.088c-0.826-0.06-1.297-0.56-1.415-1.503c-1.651-9.668-3.302-19.308-4.952-28.917
		c-2.771-16.566-4.658-29.831-5.66-39.795c-0.119-1.179,0.265-1.769,1.15-1.769h9.462c1.002,0.119,1.592,0.767,1.769,1.946
		c0.177,1.18,1.444,11.615,3.803,31.305c0.059,0.649,0.235,0.973,0.531,0.973c0.235,0,0.442-0.354,0.619-1.064
		c0.354-5.733,1.415-16.225,3.184-31.475c0.177-1.182,0.708-1.742,1.592-1.685c1.946,0,3.891,0,5.836,0
		c2.888,0.119,4.392,0.769,4.51,1.95c0.825,7.861,2.003,19.06,3.538,33.598c0.058,0.887,0.234,1.33,0.53,1.33
		c0.471,0,0.796-0.56,0.973-1.68c0.589-3.772,1.371-10.126,2.344-19.058c0.973-8.932,1.517-13.721,1.636-14.37
		c0.177-1.12,0.825-1.65,1.945-1.592c2.594-0.118,5.63-0.177,9.109-0.177C141.085,2.104,141.35,2.723,141.173,3.902z"/>
	<path d="M169.824,73.41c0,0.708-0.474,1.09-1.42,1.149c-8.165,0.412-15.591,0.354-22.276-0.177c-0.652-0.06-0.977-0.619-0.977-1.68
		V3.636c0-0.648,0.323-0.973,0.973-0.973c4.539-0.058,11.88-0.029,22.021,0.088c0.941,0,1.414,0.354,1.414,1.062
		c0,0.943,0,2.535,0,4.775c-0.059,2.771-0.088,4.525-0.088,5.262c0,0.738-0.322,1.105-0.966,1.105c-2.343,0-5.708,0-10.099,0
		c-0.878,0-1.316,0.325-1.316,0.973c0,0.295-0.03,2.388-0.088,6.279c-0.06,3.302-0.06,5.778,0,7.428
		c0,0.649,0.351,1.032,1.053,1.149c1.227,0.177,3.945,0.208,8.155,0.089c0.76,0,1.169,0.354,1.227,1.061
		c0.058,1.061,0.029,3.037-0.089,5.925c-0.118,3.361-0.176,5.336-0.176,5.925c0,0.826-0.325,1.238-0.974,1.238h-7.959
		c-0.59,0-0.943,0.438-1.061,1.313c-0.296,2.45-0.354,7.087-0.177,13.912c0,0.758,0.53,1.196,1.592,1.312c2.299,0,5.541,0,9.728,0
		c0.942,0,1.415,0.384,1.415,1.149C169.736,67.485,169.765,71.053,169.824,73.41z"/>
	<path d="M203.605,57.757c0,5.188-1.327,9.286-3.98,12.292c-2.652,3.006-6.397,4.51-11.23,4.51c-4.187,0-7.753-1.621-10.7-4.864
		c-3.126-3.478-4.628-7.988-4.511-13.53c0-0.942,0.031-2.476,0.089-4.598c0.06-1.238,0.383-1.857,0.973-1.857
		c0.589,0,2.255-0.058,4.997-0.177c2.74-0.118,4.406-0.177,4.996-0.177c0.588,0,0.884,0.767,0.884,2.299v4.333
		c0,4.245,1.149,6.367,3.449,6.367c1.827,0,2.8-1.444,2.918-4.333l0.177-4.953c0.059-1.473-1.474-3.743-4.598-6.809
		c-5.248-5.187-8.137-8.105-8.667-8.755c-3.126-3.655-4.687-6.986-4.687-9.993v-7.517c0-5.364,1.267-9.639,3.803-12.823
		c2.711-3.478,6.661-5.276,11.85-5.395c4.245-0.058,7.635,1.415,10.17,4.422c2.357,2.83,3.537,6.574,3.537,11.231v8.755
		c0,0.884-0.324,1.357-0.973,1.415c-1.711,0.177-4.924,0.177-9.639,0c-0.768,0-1.15-0.442-1.15-1.326
		c-0.06-1.355,0-3.714,0.177-7.075c0.059-1.238-0.163-2.461-0.663-3.67c-0.502-1.208-1.165-1.813-1.989-1.813
		c-2.3,0-3.449,1.945-3.449,5.836v4.599c0,1.828,1.562,4.422,4.687,7.782c2.947,3.125,5.895,6.25,8.844,9.374
		c3.124,3.891,4.688,7.34,4.688,10.347V57.757z"/>
	<path d="M235.351,13.187c0,0.827-0.501,1.238-1.503,1.238c-0.413,0-1.298-0.029-2.653-0.088c-1.297,0-2.358,0-3.184,0
		c-1.238,0-1.857,0.443-1.857,1.328l0.178,57.124c0,0.945-0.325,1.447-0.973,1.506c-2.123,0.294-5.483,0.265-10.082-0.088
		c-0.767-0.06-1.149-0.561-1.149-1.506l-0.089-57.124c0-0.826-0.354-1.239-1.061-1.239h-6.544c-0.944-0.058-1.415-0.471-1.415-1.238
		c0,0.649-0.06-0.56-0.177-3.625c-0.118-2.004-0.059-3.566,0.177-4.687c0.234-1.532,0.766-2.299,1.592-2.299
		c7.31-0.058,16.418-0.058,27.326,0c0.824,0,1.267,0.531,1.326,1.592C235.381,7.735,235.41,10.77,235.351,13.187z"/>
</g>
<g>
	<path d="M45.572,84.993c-1.378,3.655-3.484,9.907-6.318,18.758c-3.565,11.208-5.753,18.76-6.562,22.658
		c-0.163,0.731-0.163,2.275,0,4.629c-0.082,12.667-0.082,27.852,0,45.555c0.08,2.438-0.649,3.694-2.187,3.776
		c1.134-0.082-3.037-0.243-12.515-0.486c-1.622,0-2.472-1.012-2.552-3.037c0.243-13.771,0.405-29.163,0.486-46.174
		c0-0.647-0.121-1.781-0.364-3.402c-3.322-12.231-7.776-26.772-13.366-43.622c-0.161-0.565,0.021-1.154,0.547-1.762
		c0.526-0.607,1.113-0.951,1.762-1.033c3.726-0.243,7.534-0.243,11.422,0c2.267,0.163,3.564,1.257,3.889,3.281
		c0.809,3.645,1.944,8.952,3.402,15.917c0.647,2.998,1.133,4.496,1.458,4.496c0.08,0,0.404-1.513,0.972-4.543
		c0.647-3.681,1.66-9.041,3.038-16.081c0.486-1.883,1.659-2.907,3.523-3.07c2.674,0.082,6.398,0.082,11.179,0
		c1.62-0.08,2.43,0.934,2.43,3.045C45.815,84.304,45.733,84.67,45.572,84.993z"/>
	<path d="M83.969,161.291c0,13.609-6.481,20.414-19.441,20.414c-6.725,0-11.543-1.701-14.459-5.104
		c-2.755-3.159-4.131-8.263-4.131-15.311v-56.259c0-8.829,1.781-15.107,5.347-18.834c2.916-3.078,7.33-4.617,13.244-4.617
		c6.318,0,10.936,1.336,13.852,4.01c3.725,3.402,5.589,9.398,5.589,17.983V161.291z M68.537,155.823v-49.211
		c0-4.779-1.135-7.169-3.402-7.169c-2.512,0-3.767,2.43-3.767,7.291v49.211c0,2.673,0.283,4.355,0.851,5.042
		c0.565,0.689,1.538,1.033,2.916,1.033C67.402,162.02,68.537,159.955,68.537,155.823z"/>
	<path d="M132.937,84.011l-0.243,75.119c0,4.693-1.014,8.821-3.038,12.379c-3.484,6.149-9.437,9.223-17.862,9.223
		c-9.478,0-15.635-2.265-18.469-6.797c-1.944-2.912-2.916-8.534-2.916-16.867V84.011c0-0.682,0.14-1.257,0.425-1.726
		c0.283-0.469,0.668-0.704,1.154-0.704h13.002c1.376,0,2.065,0.607,2.065,1.823c0,2.755,0,15.352,0,37.789
		c-0.082,22.439-0.122,33.375-0.122,32.808c0,6.318,1.66,9.478,4.982,9.478c2.916,0,4.374-3.159,4.374-9.478V84.011
		c-0.081-1.62,0.444-2.43,1.58-2.43c8.02,0,12.534,0.043,13.548,0.129C132.43,81.795,132.937,82.562,132.937,84.011z"/>
	<path d="M183.605,84.379c-0.081-4.215-0.284,26.768-0.607,92.948c0,2.107-0.649,3.284-1.943,3.527
		c-3.889,0.647-7.98,0.647-12.273,0c-1.458-0.243-2.39-1.094-2.794-2.552c-2.674-12.151-5.793-25.922-9.356-41.313
		c-0.324-1.215-0.811-1.823-1.458-1.823c-0.486,0-0.729,0.847-0.729,2.539c0,1.693,0,7.414,0,17.163
		c-0.081,9.669-0.121,17.203-0.121,22.601c0,1.614-1.014,2.62-3.038,3.022c-1.378,0.323-3.201,0.442-5.468,0.363
		c-2.916-0.082-4.577-0.122-4.982-0.122c-1.622,0.08-2.47-0.849-2.551-2.787c-0.323-11.312-0.405-28.363-0.243-51.151
		c0.163-22.06,0.446-36.081,0.851-42.062c0.161-1.938,0.687-2.948,1.579-3.03c1.944-0.08,4.576-0.08,7.898,0
		c4.05,0.163,6.237,0.243,6.562,0.243c1.133,0,1.862,0.851,2.188,2.552c4.049,19.605,6.884,32.242,8.506,37.911
		c0.646,2.187,1.173,3.281,1.579,3.281c0.565,0,0.769-1.259,0.607-3.776c-0.325-6.581-0.486-19.09-0.486-37.529
		c0-1.868,0.81-2.761,2.431-2.681c2.753,0,6.52,0,11.301,0C182.756,81.784,183.605,82.676,183.605,84.379z"/>
	<path d="M232.937,177.095c0,2.182-0.406,3.273-1.215,3.273h-3.402c-0.729,0-1.257-0.517-1.58-1.545
		c-0.324-1.031-0.85-2.419-1.579-4.166c-1.378,3.809-5.914,5.711-13.609,5.711c-8.344,0-14.216-2.096-17.618-6.288
		c-2.998-3.706-4.456-9.833-4.375-18.378l0.243-49.334c0.08-9.994,1.741-16.767,4.981-20.313c2.917-3.144,8.142-4.716,15.676-4.716
		c8.991,0,15.106,2.261,18.348,6.784c2.43,3.231,3.685,8.684,3.767,16.356c0.243,7.188,0.323,12.479,0.243,15.87
		c0,1.375-0.528,2.06-1.58,2.06c-2.836,0.082-7.25,0.042-13.244-0.122c-0.973,0-1.5-0.604-1.58-1.813
		c-0.163-4.756-0.324-9.472-0.486-14.15c-0.567-6.449-2.064-9.675-4.495-9.675c-2.998,0-4.496,3.195-4.496,9.583v51.064
		c0,1.295,0.404,2.833,1.216,4.61c0.972,2.184,2.105,3.275,3.401,3.275c3.239,0,4.86-4.374,4.86-13.123v-6.197
		c0-1.052-0.324-1.538-0.972-1.458h-2.916c-0.729,0-1.094-0.365-1.094-1.094v-11.786c0-1.215,0.607-1.823,1.822-1.823
		c4.293,0,10.247,0.042,17.862,0.122c1.215,0,1.822,0.687,1.822,2.06V177.095z"/>
</g>
<g>
	<path d="M97.548,318.275c0,1.878-0.057,3.038-0.166,3.479c-0.33,1.325-0.991,2.043-1.983,2.154c-0.441,0.108-7.273,0-20.499-0.33
		c-1.764,0-2.701-1.215-2.81-3.638c-0.222-2.864-0.276-7.935-0.166-15.208c0-4.849,0.055-11.186,0.166-19.012
		c0.109-7.493,0.166-11.515,0.166-12.067c0-2.314-0.222-3.472-0.661-3.472c-0.553,0-1.049,0.94-1.488,2.818
		c-0.883,3.98-1.929,11.277-3.141,21.889c-1.434,12.713-2.371,20.674-2.811,23.879c-0.441,2.764-1.462,4.312-3.058,4.645
		c-1.599,0.328-3.942,0.496-7.026,0.496c-4.959-0.111-7.385-0.166-7.273-0.166c-0.992,0-1.818-1.549-2.48-4.644
		c-1.103-5.194-2.26-14.093-3.471-26.695c-1.323-11.717-2.149-18.296-2.48-19.731c-0.553-2.211-1.157-3.316-1.818-3.316
		c-0.442,0-0.662,1.164-0.662,3.492c0,26.502,0.055,41.969,0.166,46.403c0.109,2.883-0.718,4.435-2.479,4.657H14.23
		c-1.765,0-2.756-1.878-2.976-5.634c-0.442-6.52-0.662-15.8-0.662-27.842c0-13.81,0.331-34.026,0.992-60.651
		c0.55-22.867,0.77-35.352,0.661-37.451c-0.111-0.992-0.057-1.875,0.166-2.65c0.331-1.214,0.935-1.767,1.819-1.658
		c5.951,0.441,12.232,0.553,18.845,0.33c1.1,0,2.092,1.215,2.976,3.637c1.211,3.418,6.613,20.722,16.201,51.908
		c0.881,2.757,1.596,4.133,2.149,4.133c0.661,0,1.376-1.384,2.148-4.156c4.076-13.074,9.312-30.584,15.705-52.527
		c0.661-2.324,1.927-3.433,3.802-3.324h17.358c1.542,0,2.314,1.547,2.314,4.639c0.439,19.115,0.881,38.227,1.323,57.338
		C97.713,281.597,97.878,304.356,97.548,318.275z"/>
	<path d="M167.142,322.917c0.108,0.662-0.388,0.992-1.488,0.992c-1.545,0-4.409,0-8.596,0c-4.19-0.111-7.827-0.166-10.911-0.166
		c-0.992,0-2.26-3.58-3.802-10.744c-1.104-5.398-1.93-10.027-2.48-13.887c-0.111-0.77-0.718-1.157-1.819-1.157H131.6
		c-0.772,0-1.268,0.393-1.488,1.173c-0.992,6.697-2.314,14.457-3.968,23.275c-0.441,1.002-0.938,1.506-1.487,1.506h-20.334
		c-1.764,0-2.479-0.664-2.148-1.988c3.745-22.537,7.493-45.131,11.241-67.779c7.382-43.528,11.791-65.347,13.225-65.458
		c5.951-0.331,11.902-0.331,17.854,0c1.323,0.111,5.398,21.933,12.233,65.464C160.254,277.071,163.725,299.995,167.142,322.917z
		 M138.378,277.126c-1.653-12.564-2.702-18.846-3.141-18.846c-0.553,0-1.214,2.701-1.984,8.1c-0.441,3.529-0.883,7.109-1.322,10.746
		c-0.111,0.33,0.413,0.578,1.57,0.744c1.157,0.165,2.232,0.193,3.224,0.082C137.825,277.844,138.378,277.567,138.378,277.126z"/>
	<path d="M233.431,192.491c-0.11-5.734-0.388,36.418-0.826,126.453c0,2.867-0.884,4.469-2.646,4.799
		c-5.289,0.881-10.855,0.881-16.696,0c-1.983-0.33-3.252-1.487-3.802-3.471c-3.637-16.531-7.881-35.266-12.729-56.207
		c-0.441-1.652-1.103-2.479-1.983-2.479c-0.661,0-0.992,1.151-0.992,3.453c0,2.304,0,10.086,0,23.35
		c-0.111,13.156-0.165,23.405-0.165,30.748c0,2.196-1.38,3.564-4.133,4.113c-1.876,0.438-4.354,0.602-7.439,0.492
		c-3.968-0.11-6.228-0.164-6.777-0.164c-2.206,0.107-3.36-1.155-3.472-3.793c-0.439-15.389-0.551-38.587-0.33-69.591
		c0.222-30.012,0.606-49.087,1.156-57.224c0.22-2.637,0.936-4.012,2.149-4.123c2.646-0.107,6.226-0.107,10.745,0
		c5.51,0.223,8.485,0.331,8.927,0.331c1.542,0,2.534,1.157,2.976,3.472c5.51,26.672,9.366,43.864,11.572,51.577
		c0.881,2.976,1.596,4.464,2.148,4.464c0.771,0,1.047-1.713,0.827-5.138c-0.442-8.953-0.661-25.972-0.661-51.059
		c0-2.542,1.1-3.755,3.307-3.647c3.744,0,8.869,0,15.373,0C232.273,188.96,233.431,190.175,233.431,192.491z"/>
</g>
</svg>
