<?xml version="1.0" encoding="utf-8"?>
<!-- Generator: Adobe Illustrator 17.0.0, SVG Export Plug-In . SVG Version: 6.00 Build 0)  -->
<!DOCTYPE svg PUBLIC "-//W3C//DTD SVG 1.1//EN" "http://www.w3.org/Graphics/SVG/1.1/DTD/svg11.dtd">
<svg version="1.1" id="Layer_1" xmlns="http://www.w3.org/2000/svg" xmlns:xlink="http://www.w3.org/1999/xlink" x="0px" y="0px"
	 width="225.5px" height="225.167px" viewBox="0 0 225.5 225.167" enable-background="new 0 0 225.5 225.167" xml:space="preserve">
<path fill="#956C34" stroke="#000000" stroke-width="8" d="M112.929,220.815c-59.648,0-108.176-48.527-108.176-108.173
	C4.753,52.995,53.282,4.47,112.929,4.47c59.646,0,108.17,48.526,108.17,108.172C221.1,172.288,172.575,220.815,112.929,220.815z"/>
<path d="M112.929,17.7c-52.354,0-94.947,42.593-94.947,94.942c0,52.352,42.593,94.943,94.947,94.943
	c52.347,0,94.941-42.592,94.941-94.943C207.871,60.292,165.276,17.7,112.929,17.7z"/>
<g>
	<path fill="#956C34" d="M64.927,115.155c0.224,0.635,0.13,0.971-0.281,1.009H56.94c-0.3,0-0.525-0.262-0.675-0.782
		c-0.487-1.713-1.537-5.753-3.149-12.12c-0.151-0.596-0.263-0.912-0.338-0.949c-0.038,0-0.075,0.317-0.112,0.949
		c-0.151,2.682-0.169,6.703-0.056,12.064c0,0.559-0.207,0.838-0.619,0.838h-5.512c-0.487,0-0.731-0.355-0.731-1.064V71.523
		c0-0.522,0.187-0.784,0.561-0.784c1.495-0.037,3.514-0.037,6.057,0c0.373,0.038,0.561,0.3,0.561,0.785
		c-0.188,6.768-0.262,10.749-0.224,11.945c0,0.262,0.056,0.393,0.168,0.393c0.112-0.038,0.205-0.208,0.28-0.51
		c0.561-2.338,1.57-6.278,3.028-11.821c0.149-0.527,0.393-0.792,0.729-0.792c0.86,0.038,2.075,0.038,3.645,0
		c1.869,0,2.841,0,2.916,0c0.523,0,0.785,0.262,0.785,0.784c0,0.112-0.019,0.225-0.056,0.336c-0.785,1.606-2.281,5.042-4.486,10.307
		c-2.243,5.414-3.328,8.232-3.253,8.457C58.553,96.933,61.375,105.111,64.927,115.155z"/>
	<path fill="#956C34" d="M75.133,114.762c0,0.897-0.3,1.421-0.897,1.57c-0.897,0.261-2.86,0.261-5.888,0
		c-0.748-0.075-1.122-0.673-1.122-1.795c0.074-12.636,0.093-26.693,0.056-42.172c0-0.373,0.037-0.709,0.112-1.009
		c0.112-0.449,0.317-0.673,0.617-0.673c1.607,0,3.645,0.037,6.113,0.112c0.635,0.075,0.972,0.598,1.009,1.569
		C75.133,83.245,75.133,97.377,75.133,114.762z"/>
	<path fill="#956C34" d="M96.892,77.413c0,0.523-0.318,0.785-0.953,0.785c-0.262,0-0.823-0.019-1.682-0.057
		c-0.823,0-1.496,0-2.019,0c-0.785,0-1.177,0.281-1.177,0.843l0.112,36.225c0,0.6-0.206,0.917-0.617,0.955
		c-1.346,0.187-3.477,0.168-6.393-0.057c-0.486-0.037-0.729-0.355-0.729-0.955l-0.056-36.225c0-0.523-0.224-0.786-0.673-0.786h-4.15
		c-0.598-0.036-0.897-0.299-0.897-0.785c0,0.412-0.038-0.354-0.112-2.299c-0.074-1.271-0.037-2.262,0.112-2.973
		c0.149-0.972,0.485-1.458,1.009-1.458c4.635-0.036,10.412-0.036,17.329,0c0.523,0,0.804,0.337,0.841,1.01
		C96.91,73.955,96.929,75.88,96.892,77.413z"/>
	<path fill="#956C34" d="M117.585,104.219c0,3.44-0.729,6.263-2.187,8.468c-1.646,2.506-4.038,3.758-7.178,3.758
		c-3.665,0-6.207-1.57-7.627-4.711c-0.973-2.168-1.458-5.477-1.458-9.926V80.161c0-1.981,0.542-3.963,1.626-5.945
		c1.645-3.028,4.131-4.542,7.459-4.542c3.551,0,6.093,1.346,7.627,4.038c1.234,2.057,1.813,4.804,1.739,8.243
		c0,1.122-0.019,1.982-0.056,2.58c-0.038,0.599-0.318,0.935-0.841,1.009c-0.524,0.076-1.458,0.094-2.804,0.057
		c-1.87-0.074-2.711-0.112-2.524-0.112c-0.673,0-1.029-0.317-1.065-0.953c0-1.346,0-2.673,0-3.981
		c-0.224-1.944-0.917-2.917-2.075-2.917c-1.533,0-2.299,3.328-2.299,9.982v15.927c0,1.047,0.149,2.038,0.449,2.973
		c0.411,1.309,1.028,1.963,1.851,1.963c1.458,0,2.187-1.963,2.187-5.889c0-0.449,0-0.972,0-1.57
		c-0.038-0.636-0.056-1.01-0.056-1.122c0-0.673,0.261-1.009,0.785-1.009c2.355,0,4.224,0.019,5.608,0.056
		c0.561,0,0.841,0.318,0.841,0.953C117.622,100.873,117.622,102.312,117.585,104.219z"/>
	<path fill="#956C34" d="M138.951,71.802c0.074,3.911,0.056,11.64-0.056,23.187c-0.112,12.292-0.168,18.96-0.168,20.002
		c0,0.56-0.346,0.903-1.037,1.034c-0.692,0.13-1.58,0.177-2.664,0.14c-1.197-0.038-1.944-0.038-2.243,0
		c-0.486,0.037-0.729-0.429-0.729-1.397l0.056-17.28c-0.038-0.483-0.28-0.763-0.729-0.838c-0.374-0.075-1.384-0.075-3.028,0
		c-0.3,0-0.468,0.279-0.505,0.838c0.037,4.587-0.019,10.383-0.168,17.392c-0.038,0.671-0.542,1.062-1.514,1.174
		c-1.57,0.225-3.141,0.261-4.711,0.112c-0.561-0.038-0.861-0.467-0.897-1.288c-0.373-9.372-0.411-23.767-0.112-43.185
		c0-0.634,0.187-0.952,0.561-0.952h6.113c0.561,0.038,0.841,0.355,0.841,0.953c0-0.036,0,2.281,0,6.954
		c-0.075,3.553-0.075,6.318,0,8.3c0,0.337,0.018,0.561,0.054,0.673c0.037,0.225,0.146,0.355,0.328,0.393
		c0.8,0.225,1.818,0.206,3.055-0.056c0.4-0.074,0.6-0.408,0.6-1.003c0-4.086,0-9.212,0-15.378c0-0.52,0.131-0.762,0.393-0.725
		c1.532-0.073,3.533-0.111,6-0.111C138.764,70.777,138.951,71.131,138.951,71.802z"/>
	<path fill="#956C34" d="M157.906,115.603c0,0.448-0.301,0.691-0.901,0.729c-5.178,0.261-9.887,0.225-14.126-0.112
		c-0.414-0.037-0.62-0.393-0.62-1.065V71.356c0-0.411,0.205-0.617,0.617-0.617c2.878-0.037,7.533-0.019,13.964,0.057
		c0.598,0,0.897,0.224,0.897,0.673c0,0.598,0,1.607,0,3.028c-0.038,1.758-0.056,2.869-0.056,3.336c0,0.469-0.204,0.701-0.612,0.701
		c-1.485,0-3.62,0-6.404,0c-0.557,0-0.835,0.206-0.835,0.617c0,0.188-0.019,1.514-0.056,3.981c-0.038,2.095-0.038,3.665,0,4.711
		c0,0.412,0.223,0.654,0.668,0.729c0.778,0.112,2.502,0.132,5.172,0.057c0.482,0,0.741,0.225,0.778,0.673
		c0.037,0.673,0.019,1.926-0.056,3.757c-0.075,2.132-0.112,3.385-0.112,3.758c0,0.524-0.206,0.785-0.617,0.785h-5.047
		c-0.374,0-0.598,0.277-0.673,0.832c-0.188,1.554-0.224,4.494-0.112,8.822c0,0.481,0.336,0.759,1.01,0.833c1.458,0,3.514,0,6.169,0
		c0.598,0,0.897,0.243,0.897,0.729C157.85,111.845,157.868,114.108,157.906,115.603z"/>
	<path fill="#956C34" d="M181.347,71.862c-0.038-1.945-0.132,12.354-0.281,42.897c0,0.973-0.3,1.517-0.897,1.629
		c-1.795,0.299-3.683,0.299-5.664,0c-0.673-0.112-1.103-0.505-1.29-1.178c-1.234-5.608-2.674-11.964-4.318-19.067
		c-0.15-0.561-0.374-0.842-0.673-0.842c-0.224,0-0.336,0.392-0.336,1.172c0,0.782,0,3.422,0,7.922
		c-0.038,4.462-0.056,7.939-0.056,10.431c0,0.744-0.468,1.209-1.402,1.395c-0.636,0.149-1.477,0.204-2.524,0.168
		c-1.346-0.038-2.113-0.057-2.299-0.057c-0.748,0.037-1.14-0.392-1.177-1.286c-0.149-5.221-0.187-13.09-0.112-23.607
		c0.075-10.182,0.206-16.652,0.393-19.413c0.074-0.895,0.317-1.36,0.729-1.398c0.897-0.036,2.112-0.036,3.645,0
		c1.869,0.075,2.878,0.112,3.028,0.112c0.523,0,0.86,0.393,1.009,1.178c1.869,9.048,3.177,14.881,3.926,17.497
		c0.299,1.009,0.542,1.514,0.729,1.514c0.261,0,0.355-0.581,0.28-1.742c-0.15-3.037-0.224-8.811-0.224-17.321
		c0-0.862,0.373-1.273,1.122-1.237c1.271,0,3.009,0,5.215,0C180.954,70.665,181.347,71.077,181.347,71.862z"/>
</g>
<g>
	<path fill="#956C34" d="M59.153,150.384c0,5.078-2.419,7.617-7.254,7.617c-2.509,0-4.307-0.635-5.395-1.904
		c-1.028-1.179-1.542-3.083-1.542-5.713v-20.991c0-3.295,0.665-5.637,1.995-7.027c1.088-1.148,2.735-1.724,4.942-1.724
		c2.357,0,4.08,0.499,5.168,1.496c1.39,1.27,2.086,3.507,2.086,6.711V150.384z M53.395,148.344v-18.362
		c0-1.783-0.424-2.675-1.27-2.675c-0.937,0-1.406,0.907-1.406,2.721v18.361c0,0.998,0.106,1.625,0.317,1.882
		c0.211,0.257,0.574,0.385,1.088,0.385C52.971,150.655,53.395,149.885,53.395,148.344z"/>
	<path fill="#956C34" d="M76.291,137.417c0,2.207-0.968,3.915-2.902,5.123c-1.421,0.877-2.947,1.315-4.579,1.315
		c-0.393,0-0.589,0.211-0.589,0.635c0,2.75-0.031,6.876-0.091,12.377c0,0.483-0.166,0.74-0.499,0.771c-1.058,0.12-2.66,0.12-4.806,0
		c-0.393-0.03-0.589-0.227-0.589-0.589l-0.091-35.817c0-0.332,0.257-0.514,0.771-0.544c1.239-0.061,3.249-0.046,6.03,0.045
		c1.783,0,3.415,0.529,4.896,1.587c1.632,1.119,2.448,2.524,2.448,4.217V137.417z M70.895,132.294
		c0.03-2.024-0.061-3.491-0.272-4.397c-0.181-0.695-0.438-1.118-0.771-1.27c-0.333-0.03-0.65-0.061-0.952-0.091
		c-0.121,0-0.348-0.03-0.68-0.091c-0.121-0.03-0.227,0.03-0.317,0.182c-0.091,0.151-0.121,0.317-0.091,0.498
		c0,2.298,0.015,5.577,0.045,9.839c0,0.271,0.151,0.469,0.453,0.589c0.151,0.062,0.347,0.046,0.589-0.045
		c0.726-0.061,1.194-0.287,1.406-0.68C70.669,136.133,70.865,134.622,70.895,132.294z"/>
	<path fill="#956C34" d="M90.98,157.049c0,0.362-0.243,0.559-0.728,0.589c-4.186,0.211-7.993,0.182-11.42-0.091
		c-0.334-0.03-0.501-0.317-0.501-0.861v-35.409c0-0.332,0.166-0.498,0.499-0.498c2.327-0.03,6.09-0.016,11.289,0.045
		c0.483,0,0.726,0.182,0.726,0.544c0,0.484,0,1.3,0,2.448c-0.031,1.421-0.045,2.32-0.045,2.698s-0.165,0.566-0.495,0.566
		c-1.201,0-2.927,0-5.177,0c-0.45,0-0.675,0.166-0.675,0.499c0,0.151-0.016,1.224-0.045,3.219c-0.031,1.693-0.031,2.963,0,3.809
		c0,0.333,0.18,0.529,0.54,0.589c0.629,0.091,2.022,0.106,4.181,0.046c0.39,0,0.599,0.181,0.629,0.544
		c0.03,0.544,0.015,1.557-0.045,3.037c-0.061,1.723-0.091,2.736-0.091,3.038c0,0.424-0.167,0.635-0.499,0.635h-4.081
		c-0.302,0-0.484,0.225-0.544,0.673c-0.152,1.256-0.181,3.634-0.091,7.132c0,0.39,0.272,0.614,0.816,0.673c1.179,0,2.841,0,4.987,0
		c0.483,0,0.725,0.197,0.725,0.59C90.935,154.011,90.95,155.84,90.98,157.049z"/>
	<path fill="#956C34" d="M110.112,121.686c-0.03-1.573-0.106,9.987-0.227,34.681c0,0.786-0.242,1.226-0.725,1.316
		c-1.451,0.241-2.978,0.241-4.579,0c-0.544-0.091-0.892-0.408-1.043-0.952c-0.997-4.534-2.161-9.672-3.491-15.415
		c-0.121-0.454-0.302-0.681-0.544-0.681c-0.181,0-0.272,0.316-0.272,0.947c0,0.632,0,2.767,0,6.404
		c-0.03,3.607-0.045,6.419-0.045,8.433c0,0.603-0.378,0.978-1.134,1.128c-0.514,0.12-1.194,0.165-2.04,0.136
		c-1.088-0.031-1.708-0.046-1.859-0.046c-0.605,0.03-0.922-0.316-0.952-1.04c-0.121-4.221-0.151-10.583-0.091-19.086
		c0.061-8.23,0.167-13.462,0.317-15.693c0.06-0.724,0.257-1.101,0.589-1.131c0.726-0.03,1.707-0.03,2.947,0
		c1.511,0.061,2.327,0.091,2.448,0.091c0.423,0,0.695,0.317,0.816,0.952c1.511,7.314,2.569,12.03,3.174,14.146
		c0.242,0.815,0.438,1.224,0.589,1.224c0.211,0,0.287-0.47,0.227-1.409c-0.121-2.455-0.181-7.123-0.181-14.003
		c0-0.697,0.302-1.03,0.907-1c1.027,0,2.433,0,4.217,0C109.795,120.718,110.112,121.051,110.112,121.686z"/>
	<path fill="#956C34" d="M133.143,156.589c-0.03,0.548-0.424,0.821-1.179,0.821c0.181,0-1.813,0.03-5.985,0.092
		c-2.539,0.06-4.307,0.029-5.304-0.091c-0.453-0.061-0.68-0.423-0.68-1.088c-0.151-15.354-0.196-26.9-0.136-34.639
		c0-0.846,0.272-1.224,0.816-1.133c0.635,0.09,2.267,0.09,4.896,0c0.392-0.03,0.619,0.121,0.68,0.452
		c-0.03,0.272-0.045,0.559-0.045,0.86c0.091,1.328,0.105,5.418,0.045,12.268c-0.061,7.456-0.045,12.631,0.045,15.528
		c0.03,0.693,0.378,1.057,1.043,1.086h4.715c0.725,0,1.088,0.274,1.088,0.822C133.173,152.634,133.173,154.306,133.143,156.589z"/>
	<path fill="#956C34" d="M152.502,157.456c0.03,0.182-0.106,0.272-0.408,0.272c-0.424,0-1.209,0-2.357,0
		c-1.149-0.03-2.146-0.045-2.992-0.045c-0.272,0-0.62-0.982-1.043-2.947c-0.302-1.48-0.529-2.75-0.68-3.809
		c-0.03-0.211-0.197-0.317-0.499-0.317h-1.768c-0.212,0-0.348,0.107-0.408,0.321c-0.272,1.837-0.635,3.966-1.088,6.384
		c-0.121,0.275-0.257,0.413-0.408,0.413h-5.577c-0.484,0-0.68-0.182-0.589-0.546c1.027-6.181,2.055-12.377,3.083-18.588
		c2.025-11.938,3.234-17.922,3.627-17.953c1.632-0.09,3.264-0.09,4.896,0c0.363,0.031,1.481,6.016,3.355,17.954
		C150.612,144.883,151.565,151.17,152.502,157.456z M144.613,144.897c-0.453-3.445-0.741-5.168-0.861-5.168
		c-0.152,0-0.333,0.741-0.544,2.222c-0.121,0.968-0.242,1.949-0.363,2.946c-0.031,0.091,0.113,0.159,0.431,0.204
		c0.317,0.046,0.612,0.054,0.884,0.023C144.461,145.095,144.613,145.018,144.613,144.897z"/>
	<path fill="#956C34" d="M166.511,126.173c0,0.424-0.257,0.635-0.771,0.635c-0.212,0-0.665-0.015-1.36-0.045
		c-0.665,0-1.209,0-1.632,0c-0.635,0-0.952,0.228-0.952,0.681l0.091,29.286c0,0.484-0.166,0.742-0.499,0.772
		c-1.088,0.15-2.811,0.136-5.169-0.046c-0.393-0.03-0.589-0.287-0.589-0.771l-0.045-29.286c0-0.424-0.181-0.636-0.544-0.636h-3.355
		c-0.484-0.03-0.725-0.241-0.725-0.635c0,0.333-0.031-0.287-0.091-1.859c-0.06-1.026-0.03-1.828,0.091-2.402
		c0.12-0.786,0.392-1.179,0.816-1.179c3.748-0.03,8.417-0.03,14.01,0c0.423,0,0.65,0.271,0.68,0.815
		C166.526,123.378,166.541,124.934,166.511,126.173z"/>
	<path fill="#956C34" d="M181.246,157.049c0,0.362-0.243,0.559-0.728,0.589c-4.186,0.211-7.993,0.182-11.42-0.091
		c-0.334-0.03-0.501-0.317-0.501-0.861v-35.409c0-0.332,0.166-0.498,0.499-0.498c2.327-0.03,6.09-0.016,11.289,0.045
		c0.483,0,0.726,0.182,0.726,0.544c0,0.484,0,1.3,0,2.448c-0.031,1.421-0.045,2.32-0.045,2.698s-0.165,0.566-0.495,0.566
		c-1.201,0-2.927,0-5.177,0c-0.45,0-0.675,0.166-0.675,0.499c0,0.151-0.016,1.224-0.045,3.219c-0.031,1.693-0.031,2.963,0,3.809
		c0,0.333,0.18,0.529,0.54,0.589c0.629,0.091,2.022,0.106,4.181,0.046c0.39,0,0.599,0.181,0.629,0.544
		c0.03,0.544,0.015,1.557-0.045,3.037c-0.061,1.723-0.091,2.736-0.091,3.038c0,0.424-0.167,0.635-0.499,0.635h-4.081
		c-0.302,0-0.484,0.225-0.544,0.673c-0.152,1.256-0.181,3.634-0.091,7.132c0,0.39,0.272,0.614,0.816,0.673c1.179,0,2.841,0,4.987,0
		c0.483,0,0.725,0.197,0.725,0.59C181.2,154.011,181.215,155.84,181.246,157.049z"/>
</g>
</svg>
