<?xml version="1.0" encoding="utf-8"?>
<!-- Generator: Adobe Illustrator 17.0.0, SVG Export Plug-In . SVG Version: 6.00 Build 0)  -->
<!DOCTYPE svg PUBLIC "-//W3C//DTD SVG 1.1//EN" "http://www.w3.org/Graphics/SVG/1.1/DTD/svg11.dtd">
<svg version="1.1" id="Layer_1" xmlns="http://www.w3.org/2000/svg" xmlns:xlink="http://www.w3.org/1999/xlink" x="0px" y="0px"
	 width="210.75px" height="210.662px" viewBox="0 0 210.75 210.662" enable-background="new 0 0 210.75 210.662"
	 xml:space="preserve">
<polygon fill="#CB9832" points="105.553,16.252 118.685,1.359 127.706,19.05 144.125,7.891 148.459,27.27 167.143,20.547 
	166.524,40.39 186.288,38.529 180.751,57.596 200.371,60.699 190.261,77.791 208.48,85.679 194.444,99.724 210.13,111.895 
	193.049,122.012 205.209,137.697 186.148,143.24 194.028,161.462 174.18,162.084 177.278,181.698 157.905,177.374 156.041,197.143 
	138.338,188.135 131.607,206.807 116.716,193.681 105.553,210.098 94.39,193.681 79.496,206.807 72.765,188.135 55.064,197.143 
	53.204,177.374 33.818,181.698 36.924,162.084 17.076,161.462 24.965,143.24 5.899,137.697 18.063,122.012 0.978,111.895 
	16.659,99.724 2.619,85.679 20.844,77.791 10.734,60.699 30.347,57.596 24.82,38.529 44.584,40.39 43.961,20.547 62.637,27.27 
	66.977,7.891 83.397,19.05 92.414,1.359 "/>
<g>
	<path d="M70.959,86.992c0,0.453-0.014,0.732-0.04,0.839c-0.08,0.32-0.239,0.493-0.478,0.52c-0.107,0.026-1.754,0-4.944-0.08
		c-0.425,0-0.652-0.293-0.678-0.877c-0.054-0.69-0.067-1.914-0.04-3.667c0-1.169,0.013-2.698,0.04-4.585
		c0.026-1.807,0.04-2.777,0.04-2.911c0-0.558-0.053-0.837-0.159-0.837c-0.133,0-0.253,0.227-0.359,0.68
		c-0.213,0.96-0.465,2.72-0.757,5.279c-0.346,3.066-0.572,4.986-0.678,5.759c-0.107,0.667-0.353,1.04-0.738,1.12
		c-0.386,0.079-0.951,0.12-1.694,0.12c-1.196-0.027-1.781-0.04-1.754-0.04c-0.239,0-0.438-0.374-0.598-1.12
		c-0.266-1.253-0.545-3.399-0.837-6.438c-0.319-2.826-0.519-4.412-0.598-4.758c-0.133-0.534-0.279-0.8-0.438-0.8
		c-0.106,0-0.16,0.281-0.16,0.842c0,6.392,0.013,10.122,0.04,11.191c0.026,0.695-0.173,1.069-0.598,1.123h-4.665
		c-0.425,0-0.665-0.453-0.718-1.358c-0.106-1.572-0.159-3.811-0.159-6.715c0-3.33,0.08-8.206,0.239-14.627
		c0.133-5.515,0.186-8.525,0.159-9.032c-0.026-0.239-0.014-0.452,0.04-0.639c0.08-0.292,0.226-0.426,0.438-0.4
		c1.436,0.107,2.95,0.133,4.545,0.08c0.266,0,0.505,0.292,0.718,0.877c0.292,0.824,1.595,4.997,3.907,12.519
		c0.212,0.665,0.385,0.997,0.518,0.997c0.16,0,0.332-0.334,0.519-1.002c0.983-3.153,2.246-7.376,3.787-12.668
		c0.16-0.561,0.465-0.828,0.917-0.802h4.187c0.372,0,0.558,0.374,0.558,1.119c0.106,4.61,0.212,9.219,0.319,13.828
		C71,78.146,71.039,83.635,70.959,86.992z"/>
	<path d="M83.757,87.752c0,0.319-0.213,0.492-0.64,0.519c-3.681,0.186-7.029,0.159-10.042-0.08c-0.294-0.027-0.44-0.279-0.44-0.758
		V56.296c0-0.292,0.146-0.438,0.438-0.438c2.046-0.026,5.355-0.013,9.927,0.04c0.425,0,0.638,0.159,0.638,0.478
		c0,0.426,0,1.143,0,2.153c-0.026,1.25-0.04,2.04-0.04,2.372c0,0.333-0.145,0.498-0.436,0.498c-1.056,0-2.573,0-4.552,0
		c-0.396,0-0.594,0.146-0.594,0.439c0,0.133-0.014,1.076-0.04,2.831c-0.027,1.489-0.027,2.605,0,3.349
		c0,0.293,0.158,0.465,0.475,0.519c0.553,0.08,1.779,0.093,3.677,0.04c0.343,0,0.527,0.16,0.553,0.479
		c0.026,0.479,0.013,1.369-0.04,2.671c-0.053,1.515-0.08,2.406-0.08,2.671c0,0.373-0.146,0.559-0.438,0.559h-3.588
		c-0.266,0-0.425,0.197-0.479,0.592c-0.133,1.104-0.159,3.195-0.08,6.271c0,0.342,0.239,0.54,0.718,0.592c1.037,0,2.498,0,4.385,0
		c0.425,0,0.638,0.173,0.638,0.519C83.717,85.081,83.73,86.69,83.757,87.752z"/>
	<path d="M96.235,87.752c0,0.319-0.213,0.492-0.64,0.519c-3.681,0.186-7.029,0.159-10.042-0.08c-0.294-0.027-0.44-0.279-0.44-0.758
		V56.296c0-0.292,0.146-0.438,0.438-0.438c2.046-0.026,5.355-0.013,9.927,0.04c0.425,0,0.638,0.159,0.638,0.478
		c0,0.426,0,1.143,0,2.153c-0.026,1.25-0.04,2.04-0.04,2.372c0,0.333-0.145,0.498-0.436,0.498c-1.056,0-2.573,0-4.552,0
		c-0.396,0-0.594,0.146-0.594,0.439c0,0.133-0.014,1.076-0.04,2.831c-0.027,1.489-0.027,2.605,0,3.349
		c0,0.293,0.158,0.465,0.475,0.519c0.553,0.08,1.779,0.093,3.677,0.04c0.343,0,0.527,0.16,0.553,0.479
		c0.026,0.479,0.013,1.369-0.04,2.671c-0.053,1.515-0.08,2.406-0.08,2.671c0,0.373-0.146,0.559-0.438,0.559h-3.588
		c-0.266,0-0.425,0.197-0.479,0.592c-0.133,1.104-0.159,3.195-0.08,6.271c0,0.342,0.239,0.54,0.718,0.592c1.037,0,2.498,0,4.385,0
		c0.425,0,0.638,0.173,0.638,0.519C96.195,85.081,96.208,86.69,96.235,87.752z"/>
	<path d="M111.186,60.602c0,0.373-0.226,0.558-0.678,0.558c-0.187,0-0.585-0.013-1.196-0.04c-0.585,0-1.063,0-1.435,0
		c-0.558,0-0.837,0.2-0.837,0.599l0.08,25.753c0,0.426-0.146,0.652-0.438,0.679c-0.957,0.133-2.472,0.12-4.545-0.04
		c-0.346-0.027-0.518-0.253-0.518-0.679l-0.04-25.753c0-0.373-0.16-0.559-0.479-0.559h-2.95c-0.425-0.026-0.638-0.212-0.638-0.558
		c0,0.292-0.027-0.252-0.08-1.635c-0.053-0.903-0.026-1.608,0.08-2.113c0.106-0.691,0.345-1.037,0.717-1.037
		c3.295-0.026,7.402-0.026,12.319,0c0.372,0,0.571,0.239,0.598,0.717C111.199,58.144,111.211,59.512,111.186,60.602z"/>
	<path d="M134.149,60.602c0,0.373-0.226,0.558-0.678,0.558c-0.187,0-0.585-0.013-1.196-0.04c-0.585,0-1.063,0-1.435,0
		c-0.558,0-0.837,0.2-0.837,0.599l0.08,25.753c0,0.426-0.146,0.652-0.438,0.679c-0.957,0.133-2.472,0.12-4.545-0.04
		c-0.346-0.027-0.518-0.253-0.518-0.679l-0.04-25.753c0-0.373-0.16-0.559-0.479-0.559h-2.95c-0.425-0.026-0.638-0.212-0.638-0.558
		c0,0.292-0.027-0.252-0.08-1.635c-0.053-0.903-0.026-1.608,0.08-2.113c0.106-0.691,0.345-1.037,0.717-1.037
		c3.295-0.026,7.402-0.026,12.319,0c0.372,0,0.571,0.239,0.598,0.717C134.163,58.144,134.175,59.512,134.149,60.602z"/>
	<path d="M149.339,56.613c0.053,2.781,0.04,8.275-0.04,16.484c-0.08,8.739-0.12,13.479-0.12,14.22c0,0.397-0.246,0.642-0.738,0.735
		c-0.492,0.092-1.123,0.125-1.894,0.099c-0.851-0.027-1.382-0.027-1.595,0c-0.346,0.026-0.518-0.305-0.518-0.994l0.04-12.285
		c-0.027-0.344-0.199-0.542-0.518-0.596c-0.266-0.053-0.984-0.053-2.153,0c-0.213,0-0.333,0.199-0.359,0.596
		c0.026,3.261-0.014,7.381-0.12,12.364c-0.027,0.477-0.386,0.755-1.077,0.835c-1.116,0.159-2.232,0.186-3.349,0.08
		c-0.399-0.027-0.612-0.332-0.638-0.916c-0.265-6.663-0.292-16.896-0.08-30.7c0-0.451,0.133-0.677,0.398-0.677h4.346
		c0.399,0.027,0.598,0.253,0.598,0.678c0-0.026,0,1.622,0,4.944c-0.054,2.525-0.054,4.492,0,5.9c0,0.239,0.013,0.398,0.039,0.479
		c0.026,0.159,0.104,0.253,0.233,0.279c0.569,0.16,1.293,0.146,2.172-0.04c0.284-0.053,0.427-0.291,0.427-0.713
		c0-2.905,0-6.549,0-10.933c0-0.369,0.093-0.542,0.279-0.515c1.089-0.052,2.511-0.079,4.266-0.079
		C149.206,55.885,149.339,56.136,149.339,56.613z"/>
	<path d="M162.416,87.752c0,0.319-0.213,0.492-0.64,0.519c-3.681,0.186-7.029,0.159-10.042-0.08c-0.294-0.027-0.44-0.279-0.44-0.758
		V56.296c0-0.292,0.146-0.438,0.438-0.438c2.046-0.026,5.355-0.013,9.927,0.04c0.425,0,0.638,0.159,0.638,0.478
		c0,0.426,0,1.143,0,2.153c-0.026,1.25-0.04,2.04-0.04,2.372c0,0.333-0.145,0.498-0.436,0.498c-1.056,0-2.573,0-4.552,0
		c-0.396,0-0.594,0.146-0.594,0.439c0,0.133-0.014,1.076-0.04,2.831c-0.027,1.489-0.027,2.605,0,3.349
		c0,0.293,0.158,0.465,0.475,0.519c0.553,0.08,1.779,0.093,3.677,0.04c0.343,0,0.527,0.16,0.553,0.479
		c0.026,0.479,0.013,1.369-0.04,2.671c-0.053,1.515-0.08,2.406-0.08,2.671c0,0.373-0.146,0.559-0.438,0.559h-3.588
		c-0.266,0-0.425,0.197-0.479,0.592c-0.133,1.104-0.159,3.195-0.08,6.271c0,0.342,0.239,0.54,0.718,0.592c1.037,0,2.498,0,4.385,0
		c0.425,0,0.638,0.173,0.638,0.519C162.376,85.081,162.389,86.69,162.416,87.752z"/>
</g>
<g>
	<path d="M76.317,140.945c0,4.982-1.056,9.069-3.167,12.263c-2.383,3.627-5.847,5.441-10.395,5.441
		c-5.307,0-8.988-2.273-11.044-6.821c-1.409-3.14-2.112-7.931-2.112-14.375v-31.347c0-2.869,0.784-5.738,2.355-8.608
		c2.382-4.385,5.982-6.578,10.801-6.578c5.143,0,8.824,1.949,11.044,5.847c1.787,2.978,2.625,6.958,2.518,11.938
		c0,1.624-0.028,2.87-0.081,3.735c-0.055,0.867-0.461,1.354-1.218,1.462c-0.759,0.109-2.111,0.136-4.061,0.081
		c-2.708-0.108-3.926-0.162-3.654-0.162c-0.975,0-1.49-0.459-1.543-1.381c0-1.949,0-3.87,0-5.766
		c-0.325-2.814-1.328-4.223-3.005-4.223c-2.221,0-3.33,4.819-3.33,14.456v23.063c0,1.517,0.216,2.952,0.649,4.304
		c0.595,1.896,1.489,2.842,2.68,2.842c2.111,0,3.167-2.842,3.167-8.527c0-0.65,0-1.407,0-2.274c-0.055-0.92-0.081-1.462-0.081-1.624
		c0-0.975,0.378-1.462,1.137-1.462c3.411,0,6.118,0.028,8.121,0.081c0.812,0,1.218,0.46,1.218,1.381
		C76.371,136.1,76.371,138.184,76.317,140.945z"/>
	<path d="M107.258,94.001c0.108,5.664,0.081,16.856-0.081,33.578c-0.163,17.8-0.244,27.455-0.244,28.966
		c0,0.81-0.501,1.307-1.502,1.497c-1.002,0.188-2.288,0.255-3.857,0.201c-1.733-0.054-2.816-0.054-3.249,0
		c-0.704,0.054-1.056-0.62-1.056-2.023l0.081-25.023c-0.055-0.7-0.406-1.105-1.056-1.214c-0.542-0.108-2.003-0.108-4.385,0
		c-0.434,0-0.678,0.405-0.731,1.214c0.053,6.642-0.028,15.035-0.244,25.184c-0.055,0.972-0.786,1.538-2.193,1.7
		c-2.273,0.325-4.547,0.378-6.821,0.162c-0.812-0.054-1.246-0.676-1.299-1.865c-0.541-13.572-0.595-34.416-0.163-62.535
		c0-0.919,0.27-1.379,0.812-1.379h8.852c0.812,0.055,1.218,0.515,1.218,1.38c0-0.053,0,3.303,0,10.07
		c-0.109,5.144-0.109,9.15,0,12.019c0,0.487,0.025,0.812,0.079,0.975c0.053,0.325,0.21,0.515,0.475,0.568
		c1.158,0.325,2.633,0.298,4.424-0.081c0.579-0.107,0.87-0.591,0.87-1.452c0-5.917,0-13.34,0-22.27c0-0.752,0.189-1.103,0.568-1.049
		c2.219-0.106,5.116-0.161,8.689-0.161C106.986,92.517,107.258,93.03,107.258,94.001z"/>
	<path d="M134.301,157.431c0,0.649-0.436,1.001-1.305,1.056c-7.498,0.378-14.317,0.325-20.456-0.162
		c-0.599-0.055-0.897-0.569-0.897-1.543V93.356c0-0.595,0.297-0.893,0.893-0.893c4.168-0.053,10.909-0.027,20.222,0.081
		c0.865,0,1.299,0.325,1.299,0.975c0,0.867,0,2.329,0,4.385c-0.055,2.545-0.081,4.156-0.081,4.832c0,0.678-0.296,1.015-0.887,1.015
		c-2.151,0-5.242,0-9.273,0c-0.807,0-1.209,0.298-1.209,0.894c0,0.271-0.028,2.192-0.081,5.766c-0.055,3.033-0.055,5.307,0,6.822
		c0,0.596,0.322,0.948,0.967,1.056c1.127,0.163,3.623,0.19,7.489,0.082c0.698,0,1.073,0.325,1.126,0.974
		c0.053,0.975,0.027,2.789-0.081,5.441c-0.109,3.086-0.163,4.9-0.163,5.441c0,0.759-0.298,1.137-0.893,1.137h-7.309
		c-0.542,0-0.867,0.402-0.975,1.206c-0.271,2.25-0.325,6.508-0.162,12.775c0,0.697,0.487,1.099,1.461,1.206c2.112,0,5.088,0,8.933,0
		c0.866,0,1.299,0.353,1.299,1.056C134.219,151.989,134.246,155.266,134.301,157.431z"/>
	<path d="M162.398,93.599c0,3.628-0.028,6.389-0.081,8.284c0,0.487-0.434,0.786-1.299,0.893c-2.437,0-5.766,0.028-9.989,0.082
		c-0.65,0.054-0.975,0.434-0.975,1.137v14.293c0,0.812,0.27,1.218,0.812,1.218c1.19,0.055,3.925,0,8.202-0.163
		c0.757,0,1.164,0.353,1.218,1.056c0.216,2.167,0.216,5.713,0,10.639c0,0.542-0.269,0.812-0.806,0.812
		c-1.987-0.053-4.781-0.053-8.38,0c-0.591,0.055-0.914,0.406-0.967,1.056c-0.107,1.896-0.134,5.658-0.08,11.288
		c0,7.958,0,12.101,0,12.425c0,0.704-0.377,1.083-1.129,1.137c-3.713,0.379-7.155,0.406-10.328,0.082
		c-0.701-0.055-1.049-0.433-1.049-1.138V93.681c0-0.812,0.433-1.218,1.299-1.218c2.489-0.053,6.416-0.053,11.775,0l10.557,0.081
		C161.993,92.544,162.398,92.897,162.398,93.599z"/>
</g>
</svg>
