<?xml version="1.0" encoding="utf-8"?>
<!-- Generator: Adobe Illustrator 16.0.0, SVG Export Plug-In . SVG Version: 6.00 Build 0)  -->
<!DOCTYPE svg PUBLIC "-//W3C//DTD SVG 1.1//EN" "http://www.w3.org/Graphics/SVG/1.1/DTD/svg11.dtd">
<svg version="1.1" id="Layer_1" xmlns="http://www.w3.org/2000/svg" xmlns:xlink="http://www.w3.org/1999/xlink" x="0px" y="0px"
	 width="144px" height="144px" viewBox="0 0 144 144" enable-background="new 0 0 144 144" xml:space="preserve">
<g>
	<path d="M76.362,100.555c9.31,4.484,7.503,5.815,11.927,1.396c0,0,2.009-1.875,2.952-5.196c0.008-0.012,0.008-0.019,0.008-0.034
		c0.218-0.773,0.344-1.66,0.401-2.593c-0.049-2.612-1.46-4.375-2.01-4.966c-3.622-3.62-11.395-7.243-18.357-10.151L59.927,95.825
		C64.413,96.532,70.94,97.926,76.362,100.555z"/>
	<path d="M45.669,103.15c-0.024,0-0.058-0.012-0.083-0.014c-0.498-0.072-0.984-0.121-1.439-0.153c-0.027,0-0.049-0.001-0.067-0.001
		c-0.471-0.024-0.911-0.042-1.323-0.039c-1.004,0.065-2.094,0.181-3.348,0.449c-5.488,1.172-7.988,7.884-2.195,8.359
		c6.293-0.069,11.146-6.58,11.146-6.582l0.862-1.227c0,0-0.098-0.02-0.104-0.02C47.867,103.54,46.721,103.298,45.669,103.15z"/>
	<path d="M72.118,0.882C32.841,0.882,1.001,32.723,1.001,72c0,39.276,31.84,71.115,71.117,71.115
		c39.252,0,71.091-31.839,71.091-71.115C143.209,32.723,111.37,0.882,72.118,0.882z M109.263,27.26c0,0-6.963,14.672-25.219,14.672
		c0,0,0.008-0.009,0.007-0.009c-7.29,0-13.418-3.927-16.708-8.469l-0.006,0.003c-0.41-0.493-1.449-1.464-1.796-1.674
		c-0.826-0.654-3.072,0.701-3.072,0.701c-4.56,3.27-11.372,11.108-2.51,18.538c4.339,3.638,11.4,7.014,18.647,10.716l4.05-5.8
		l0.428-0.613c1.498-2.056,6.952-8.557,14.859-7.02c4.693,1.36,5.997,5.964,5.997,8.26c0,3.569-3.192,7.345-7.118,7.345
		c-3.933,0-7.117-3.288-7.117-7.345c0-0.512,0.067-1.004,0.168-1.488h-0.009c-1.175-1.929-3.922,2.163-3.922,2.163l-4.147,6.145
		c12.015,6.303,23.604,13.763,23.488,25.146c-0.146,14.354-13.676,8.964-30.934,31.526c-1.319,1.734-3.275-0.27-4.008-1.007
		c-1.59-1.613-3.693-3.772-5.975-5.861c-0.009-0.012-0.023-0.021-0.033-0.028c-0.706-0.626-1.388-1.215-2.069-1.769
		c-0.006-0.006-0.021-0.018-0.038-0.029c-0.681-0.557-1.356-1.077-2.019-1.57l0.008-0.003c-0.528-0.42-1.104-0.813-1.697-1.196
		c-0.144-0.102-0.296-0.208-0.436-0.302c0-0.008-0.009-0.008-0.018-0.008c-0.047-0.029-0.104-0.052-0.157-0.085
		c-1.736-1.075-3.372-1.992-4.112-2.4c-0.142-0.073-0.285-0.139-0.436-0.205l-0.74,1.045c0,0-4.596,6.269-9.816,8.381
		c-1.298,0.467-2.762,0.792-4.367,0.922c-6.908,0.263-8.493-3.823-8.666-4.37c-1.728-6.151,4.985-16.409,24.836-16.409
		c0,0,0.24,0.017,0.641,0.056l0.641-0.918l0.014-0.019l11.708-16.767c-0.917-0.363-1.812-0.72-2.65-1.055
		c-9.379-3.724-22.89-8.409-23.19-24.09C41.47,36.712,61.697,27.84,73.338,24.027c0,0,2.639-0.882,4.559-1.913
		c1.82-0.979,2.806-1.57,3.474-0.346c2.33,4.864,7.533,8.263,13.608,8.348c8.622-0.166,11.983-4.313,11.983-4.313l0.012,0.007
		c0.463-0.519,1.33-0.734,1.896-0.343c0.59,0.406,0.739,1.185,0.38,1.785L109.263,27.26z"/>
</g>
</svg>
